<svg width="1280" height="520" viewBox="0 0 1280 520" fill="none" xmlns="http://www.w3.org/2000/svg">
  <rect width="1280" height="520" rx="28" fill="#FBFCFA"/>
  <text x="70" y="80" fill="#173F3A" font-family="Segoe UI, Microsoft YaHei, sans-serif" font-size="34" font-weight="800">Workflow Overview</text>
  <rect x="70" y="170" width="180" height="110" rx="22" fill="#FFF2E0" stroke="#EBCB9A"/>
  <text x="105" y="220" fill="#7B4C11" font-family="Segoe UI, Microsoft YaHei, sans-serif" font-size="22" font-weight="700">定时触发</text>
  <text x="100" y="255" fill="#8D6C41" font-family="Segoe UI, Microsoft YaHei, sans-serif" font-size="18">早晚各执行一次</text>
  <rect x="310" y="170" width="220" height="110" rx="22" fill="#EAF7F3" stroke="#BEDFD5"/>
  <text x="355" y="220" fill="#195A4E" font-family="Segoe UI, Microsoft YaHei, sans-serif" font-size="22" font-weight="700">多源 RSS 采集</text>
  <text x="340" y="255" fill="#4F6E68" font-family="Segoe UI, Microsoft YaHei, sans-serif" font-size="18">AI / 科技 / 资讯源聚合</text>
  <rect x="590" y="170" width="220" height="110" rx="22" fill="#F6F0FF" stroke="#D9CCF5"/>
  <text x="633" y="220" fill="#4C3782" font-family="Segoe UI, Microsoft YaHei, sans-serif" font-size="22" font-weight="700">字段标准化</text>
  <text x="625" y="255" fill="#685B90" font-family="Segoe UI, Microsoft YaHei, sans-serif" font-size="18">统一标题 / 日期 / 来源</text>
  <rect x="870" y="170" width="150" height="110" rx="22" fill="#FFF7E9" stroke="#ECD8A6"/>
  <text x="900" y="220" fill="#7A5A17" font-family="Segoe UI, Microsoft YaHei, sans-serif" font-size="22" font-weight="700">当天过滤</text>
  <text x="900" y="255" fill="#8E7642" font-family="Segoe UI, Microsoft YaHei, sans-serif" font-size="18">降低噪声</text>
  <rect x="1080" y="140" width="150" height="80" rx="20" fill="#E6F1FF" stroke="#B7D2F5"/>
  <text x="1118" y="189" fill="#1E538F" font-family="Segoe UI, Microsoft YaHei, sans-serif" font-size="20" font-weight="700">LLM 摘要</text>
  <rect x="1080" y="250" width="150" height="80" rx="20" fill="#E8FAF1" stroke="#BDE4CF"/>
  <text x="1105" y="299" fill="#1C6B4E" font-family="Segoe UI, Microsoft YaHei, sans-serif" font-size="20" font-weight="700">飞书入库</text>
  <path d="M250 225H310" stroke="#7B8B88" stroke-width="6" stroke-linecap="round"/>
  <path d="M530 225H590" stroke="#7B8B88" stroke-width="6" stroke-linecap="round"/>
  <path d="M810 225H870" stroke="#7B8B88" stroke-width="6" stroke-linecap="round"/>
  <path d="M1020 225H1050C1065 225 1075 215 1075 200V180H1080" stroke="#7B8B88" stroke-width="6" stroke-linecap="round" stroke-linejoin="round"/>
  <path d="M1020 225H1050C1065 225 1075 235 1075 250V290H1080" stroke="#7B8B88" stroke-width="6" stroke-linecap="round" stroke-linejoin="round"/>
  <text x="70" y="430" fill="#526563" font-family="Segoe UI, Microsoft YaHei, sans-serif" font-size="20">公开版工作流保留了核心自动化结构，但已移除真实凭证、表格 ID 与内部环境信息。</text>
</svg>
